# xmcd
#
# Track frame offsets:
#   150
#   15472
#   31854
#   46146
#   64133
#   77120
#   94917
#   111094
#   123141
#   136423
#   156600
#   168487
#   186444
#   199906
#   222703
#   242335
#   253427
#   268974
#   285861
#   301128
#
# Disc length: 4179 seconds
#
# Revision: 0
# Processed by: cddbd v1.5.2PL0 Copyright (c) Steve Scherf et al.
# Submitted via: uFREEDB ActiveX Control 1.5
#
DISCID=24105114
DTITLE=Varios - Viajando ao passado
DYEAR=2000
DGENRE=Blues
TTITLE0=Lero lero - Diana
TTITLE1=Sorte tem quem acredita nela - Fernando Mendes
TTITLE2=Se ainda existe amor - Balthazar
TTITLE3=Tornerô - Antonio Marcos
TTITLE4=A galeria do amor - Agnaldo Timóteo
TTITLE5=Foi Deus quem fez você - Amelinha
TTITLE6=Fotografia - José Augusto
TTITLE7=Não vá embora - José Roberto
TTITLE8=E vou rifar meu coração - Lindomar Castilho
TTITLE9=Oração de um jovem triste - Antonio Marcos
TTITLE10=A minha vingança - José Roberto
TTITLE11=Juntos novamente - Jane e Horondy
TTITLE12=Mande nem que seja um telegrama - Adair José
TTITLE13=O mais importante e verdadeiro amor - Marcelo Grey
TTITLE14=Na minha opinião - Odair José
TTITLE15=No dia em que partir - Paulo Sérgio
TTITLE16=Cedo pra mim - Kátia
TTITLE17=Aquela nuvem  - Gilliard
TTITLE18=Última carta - Marcos Roberto
TTITLE19=Suely - José Roberto
EXTD=Discografia independente
EXTT0=
EXTT1=
EXTT2=
EXTT3=
EXTT4=
EXTT5=
EXTT6=
EXTT7=
EXTT8=
EXTT9=
EXTT10=
EXTT11=
EXTT12=
EXTT13=
EXTT14=
EXTT15=
EXTT16=
EXTT17=
EXTT18=
EXTT19=
PLAYORDER=
